<?xml version="1.0" encoding="utf-8"?>
<!-- Generator: Adobe Illustrator 23.0.4, SVG Export Plug-In . SVG Version: 6.00 Build 0)  -->
<svg version="1.1" id="Layer_1" xmlns="http://www.w3.org/2000/svg" xmlns:xlink="http://www.w3.org/1999/xlink" x="0px" y="0px"
	 viewBox="0 0 1300 400" style="enable-background:new 0 0 1300 400;" xml:space="preserve">
<style type="text/css">
	.st0{fill-rule:evenodd;clip-rule:evenodd;fill:#FF6633;}
	.st1{fill-rule:evenodd;clip-rule:evenodd;fill:#101625;}
	.st2{fill-rule:evenodd;clip-rule:evenodd;fill:#1B93D2;}
	.st3{fill:#1C2338;}
</style>
<polygon class="st0" points="1017.3,113.6 986.8,113.6 986.8,140.4 "/>
<g>
	<path class="st1" d="M547.3,183.4h33.1v-24h-33.1v-33.8h-28.5v33.8h-15.6v24h15.6v65c0,6.8,0.9,12.6,2.6,17.2
		c1.7,4.6,4.2,8.3,7.4,11.1c3.2,2.8,7,4.8,11.4,6.1c4.4,1.2,9.1,1.9,14.3,1.9c5.3,0,10-0.5,14-1.6c4-1.1,7.9-2.6,11.4-4.7v-23.1
		c-5.6,2.8-11.4,4.2-17.5,4.2c-4.8,0-8.6-1.2-11.2-3.6c-2.6-2.4-4-6.4-4-11.8V183.4z"/>
	<path class="st1" d="M626.6,231h90.5c0.2-1.4,0.3-2.7,0.4-4c0.1-1.2,0.1-2.5,0.1-3.7c0-8.9-1.2-17.3-3.7-25.4
		c-2.5-8.1-6.2-15.2-11.1-21.2c-4.9-6.1-11-10.9-18.4-14.5c-7.4-3.6-16-5.4-25.8-5.4c-8.9,0-17,1.7-24.3,5.1
		c-7.3,3.4-13.6,8-19,13.9c-5.4,5.8-9.5,12.6-12.5,20.4c-3,7.8-4.4,16.1-4.4,25c0,9.6,1.6,18.4,4.9,26.2c3.3,7.9,7.7,14.6,13.4,20.2
		c5.7,5.6,12.4,10,20.1,13.1c7.7,3.1,16,4.7,24.8,4.7c11.4,0,21.1-2.1,29.3-6.3c8.2-4.2,15.2-9.8,21.1-16.8l-16.6-14.7
		c-5,4.8-10,8.5-15.2,11c-5.1,2.5-11.2,3.7-18.2,3.7c-9.2,0-17-2.7-23.3-8C632.3,248.8,628.3,241.1,626.6,231L626.6,231z
		 M626.3,212.3c1.2-9.6,4.7-17.5,10.4-23.4c5.7-6,12.9-9,21.6-9c4.7,0,8.8,0.9,12.5,2.6c3.7,1.7,6.8,4,9.4,6.9
		c2.6,2.9,4.7,6.3,6.3,10.3c1.6,4,2.6,8.2,3,12.7H626.3z"/>
	<path class="st1" d="M774.5,213.2c0-9.6,2.5-17.1,7.6-22.4c5.1-5.4,11.7-8,19.9-8c8.3,0,14.8,2.6,19.3,7.8
		c4.5,5.2,6.8,12.6,6.8,22.2v69.8h28.5v-78.4c0-14.5-3.8-26-11.4-34.5c-7.6-8.6-18.4-12.8-32.4-12.8c-4.8,0-9.1,0.6-12.9,1.8
		c-3.8,1.2-7.3,2.8-10.5,4.9c-3.2,2-6,4.4-8.4,6.9c-2.4,2.6-4.6,5.4-6.6,8.4v-19.3H746v123.2h28.5V213.2z"/>
	<path class="st1" d="M925,183.4h33.1v-24H925v-33.8h-28.5v33.8h-15.6v24h15.6v65c0,6.8,0.9,12.6,2.6,17.2c1.7,4.6,4.2,8.3,7.4,11.1
		c3.2,2.8,7,4.8,11.4,6.1c4.4,1.2,9.1,1.9,14.3,1.9c5.3,0,10-0.5,14-1.6c4-1.1,7.9-2.6,11.4-4.7v-23.1c-5.6,2.8-11.4,4.2-17.5,4.2
		c-4.8,0-8.6-1.2-11.2-3.6c-2.6-2.4-4-6.4-4-11.8V183.4z"/>
	<rect x="987.9" y="159.3" class="st1" width="28.5" height="123.2"/>
	<path class="st1" d="M1156.4,282.5v-73c0-16.5-4.4-29.3-13.3-38.4c-8.9-9.1-22.5-13.6-40.8-13.6c-10.1,0-18.7,0.9-25.9,2.8
		c-7.2,1.9-14.2,4.4-21,7.5l7.7,22.6c5.6-2.3,11.1-4.2,16.6-5.6c5.4-1.4,11.7-2.1,18.7-2.1c9.8,0,17.3,2.3,22.5,6.8
		c5.2,4.5,7.8,11,7.8,19.6v3c-4.8-1.6-9.8-2.8-15-3.7c-5.2-0.9-11.5-1.4-19-1.4c-7.2,0-13.8,0.8-19.9,2.4
		c-6.1,1.6-11.4,4.1-15.9,7.3c-4.4,3.3-7.9,7.4-10.4,12.4c-2.5,5-3.7,10.8-3.7,17.5v0.5c0,6.2,1.2,11.7,3.6,16.4
		c2.4,4.7,5.6,8.7,9.6,11.9c4,3.2,8.6,5.6,13.9,7.2c5.3,1.6,10.9,2.5,16.8,2.5c9.3,0,17.3-1.7,23.8-5.1c6.5-3.4,11.9-7.6,16.1-12.6
		v15.2H1156.4L1156.4,282.5z M1129.1,238c0,3.9-0.8,7.4-2.4,10.6c-1.6,3.2-3.9,5.9-6.9,8.2c-3,2.3-6.4,4-10.4,5.2
		c-4,1.2-8.3,1.9-12.9,1.9c-6.7,0-12.3-1.6-16.9-4.7c-4.6-3.1-6.9-7.6-6.9-13.5v-0.5c0-6.4,2.5-11.3,7.5-14.7
		c5-3.4,11.9-5.1,20.8-5.1c5.4,0,10.6,0.5,15.5,1.4c4.9,0.9,9.1,2.1,12.7,3.5V238z"/>
	<rect x="1191.6" y="112.2" class="st1" width="28.5" height="170.3"/>
	<rect x="443.9" y="159.3" class="st1" width="28.5" height="123.2"/>
</g>
<polygon class="st2" points="473.3,113.6 442.7,113.6 442.7,140.4 "/>
<g>
	<path class="st2" d="M98.5,56.2l-60.7,35c8.4,5.9,16.6,12.1,24.6,18.6l118.4-68.3l118.4,68.3c8-6.5,16.2-12.7,24.6-18.6l-60.7-35
		L180.8,8.6L98.5,56.2L98.5,56.2z M180.8,148.7c-29.8,0-58.7-3.5-86.4-10.2c10.7,10.7,20.9,22,30.4,33.8c18.3,2.6,37,3.9,56,3.9
		s37.7-1.3,56-3.9c9.5-11.8,19.7-23.1,30.4-33.8C239.5,145.2,210.6,148.7,180.8,148.7z"/>
	<path class="st1" d="M44.5,193.1c-9-9.1-18.4-17.8-28.4-25.9v31.5v95.1l82.3,47.5l37.8,21.8c-2.8-13.3-6.5-26.3-10.8-39l-81-46.7
		V193.1L44.5,193.1z M317.1,161.1c-52.5,47.2-91.4,109.3-110.2,179.7c0,0.1-0.1,0.2-0.1,0.3c-3.2,12.2-5.9,24.6-7.8,37.3l-7.9,4.6
		l-10.3,6l-10.3-6l-7.9-4.6c-2-12.7-4.6-25.1-7.8-37.3c0-0.1-0.1-0.2-0.1-0.3C136,270.5,97.1,208.4,44.5,161.1
		C35.5,153,26,145.3,16.2,138v-33.6c9.8,6.5,19.2,13.3,28.4,20.6c55.1,43.8,98.3,102,123.9,168.9c4.7,12.3,8.8,24.9,12.3,37.8
		c3.5-12.9,7.6-25.5,12.3-37.8c25.6-66.9,68.8-125.1,123.9-168.9c9.1-7.3,18.6-14.2,28.4-20.6V138
		C335.6,145.3,326.1,153,317.1,161.1L317.1,161.1z M317.1,277.4l-81,46.7c-4.3,12.7-7.9,25.7-10.8,39l37.8-21.8l82.3-47.5v-95.1
		v-31.5c-9.9,8.1-19.4,16.7-28.4,25.9V277.4z"/>
</g>
<g>
	<path class="st3" d="M1246.6,136.3c0-3.7,0.9-7.1,2.7-10.3c1.8-3.2,4.4-5.7,7.6-7.6c3.2-1.9,6.7-2.8,10.4-2.8
		c3.7,0,7.1,0.9,10.3,2.7c3.2,1.8,5.7,4.4,7.6,7.6c1.9,3.2,2.8,6.7,2.8,10.4c0,3.6-0.9,7-2.7,10.2c-1.8,3.2-4.3,5.7-7.5,7.6
		c-3.2,1.9-6.7,2.9-10.5,2.9c-3.8,0-7.3-0.9-10.5-2.8s-5.7-4.4-7.5-7.6C1247.5,143.3,1246.6,139.9,1246.6,136.3z M1249.1,136.3
		c0,3.3,0.8,6.3,2.4,9.1c1.6,2.8,3.8,5,6.6,6.6c2.8,1.6,5.8,2.4,9.1,2.4s6.3-0.8,9.1-2.4s5-3.8,6.6-6.6c1.6-2.8,2.4-5.8,2.4-9.1
		c0-3.2-0.8-6.2-2.4-8.9c-1.6-2.8-3.8-5-6.6-6.7c-2.8-1.7-5.9-2.5-9.2-2.5c-3.2,0-6.2,0.8-9,2.4c-2.8,1.6-5,3.8-6.6,6.7
		C1249.9,130,1249.1,133,1249.1,136.3z M1274.6,131.1c0,1.4-0.4,2.7-1.1,3.8c-0.7,1.1-1.7,2-3,2.6l6.5,10.8h-3.3l-5.8-9.9h-4.6v9.9
		h-2.8v-24.2h5.8c2.6,0,4.7,0.6,6.1,1.7C1273.9,127,1274.6,128.7,1274.6,131.1z M1263.3,136.3h3.1c1.7,0,3-0.4,3.9-1.3
		c1-0.9,1.4-2.1,1.4-3.7c0-3.2-1.8-4.7-5.4-4.7h-3V136.3z"/>
</g>
</svg>
